<svg width="37" height="36" viewBox="0 0 37 36" fill="none" xmlns="http://www.w3.org/2000/svg">
<path d="M18.6421 3C10.3621 3 3.64209 9.72 3.64209 18C3.64209 26.28 10.3621 33 18.6421 33C26.9221 33 33.6421 26.28 33.6421 18C33.6421 9.72 26.9221 3 18.6421 3ZM18.6421 7.5C21.1321 7.5 23.1421 9.51 23.1421 12C23.1421 14.49 21.1321 16.5 18.6421 16.5C16.1521 16.5 14.1421 14.49 14.1421 12C14.1421 9.51 16.1521 7.5 18.6421 7.5ZM18.6421 28.8C14.8921 28.8 11.5771 26.88 9.64209 23.97C9.68709 20.985 15.6421 19.35 18.6421 19.35C21.6271 19.35 27.5971 20.985 27.6421 23.97C25.7071 26.88 22.3921 28.8 18.6421 28.8Z" fill="white"/>
</svg>
