<svg width="117" height="60" viewBox="0 0 117 60" fill="none" xmlns="http://www.w3.org/2000/svg">
<g clip-path="url(#clip0_16_2)">
<path d="M0.0553894 19.1584H6.73433L10.3715 45.6298L14.9327 19.2519H20.3647L25.1036 45.6243L28.6874 19.1529H35.3012L29.1613 60H22.6453L17.7583 32.621L12.9246 60H6.24562L0.0553894 19.1584Z" fill="white"/>
<path d="M38.1742 19.1584H46.1712V37.1067L54.9145 19.1584H62.5501L54.1385 37.3597L63.4387 60H55.4417L48.1112 41.4439L46.1564 44.5214V60H38.1594L38.1742 19.1584Z" fill="white"/>
<path d="M64.8899 19.1584H70.4848L81.183 42.4532V19.1584H87.8057V60H82.4744L71.7318 35.594V60H64.8899V19.1584Z" fill="white"/>
<path d="M92.3136 19.1584H102.68C106.234 19.1584 109.021 19.6039 111.041 20.495C112.982 21.3043 114.524 22.7624 115.36 24.5792C116.211 26.4127 116.636 28.8412 116.636 31.8647V46.7381C116.636 49.8331 116.211 52.3377 115.36 54.2519C114.552 56.1232 113.036 57.6565 111.098 58.5643C109.103 59.5214 106.406 60 103.006 60H92.3136V19.1584ZM102.793 54.8074C104.57 54.8074 105.853 54.5214 106.643 53.9494C107.454 53.3549 107.997 52.5006 108.165 51.5539C108.419 50.0449 108.527 48.518 108.488 46.9912V31.3531C108.488 29.5379 108.362 28.1628 108.109 27.2277C108.01 26.7957 107.817 26.3872 107.541 26.0272C107.266 25.6673 106.914 25.3635 106.507 25.1347C105.693 24.6819 104.418 24.4554 102.68 24.4554H100.29V54.8074H102.793Z" fill="white"/>
</g>
<defs>
<clipPath id="clip0_16_2">
<rect width="116.587" height="60" fill="white" transform="translate(0.0553894)"/>
</clipPath>
</defs>
</svg>
