<svg width="31" height="30" viewBox="0 0 31 30" fill="none" xmlns="http://www.w3.org/2000/svg">
<path d="M15.6421 0C7.36209 0 0.64209 6.72 0.64209 15C0.64209 23.28 7.36209 30 15.6421 30C23.9221 30 30.6421 23.28 30.6421 15C30.6421 6.72 23.9221 0 15.6421 0ZM15.6421 4.5C18.1321 4.5 20.1421 6.51 20.1421 9C20.1421 11.49 18.1321 13.5 15.6421 13.5C13.1521 13.5 11.1421 11.49 11.1421 9C11.1421 6.51 13.1521 4.5 15.6421 4.5ZM15.6421 25.8C11.8921 25.8 8.57709 23.88 6.64209 20.97C6.68709 17.985 12.6421 16.35 15.6421 16.35C18.6271 16.35 24.5971 17.985 24.6421 20.97C22.7071 23.88 19.3921 25.8 15.6421 25.8Z" fill="white"/>
</svg>
