<svg width="48" height="48" viewBox="0 0 48 48" fill="none" xmlns="http://www.w3.org/2000/svg">
<path d="M0 8C0 3.58172 3.58172 0 8 0H40C44.4183 0 48 3.58172 48 8V40C48 44.4183 44.4183 48 40 48H8C3.58172 48 0 44.4183 0 40V8Z" fill="#D2E603"/>
<path d="M22.5489 9.92705C22.8483 9.00574 24.1517 9.00574 24.4511 9.92705L27.2045 18.4012C27.3384 18.8132 27.7223 19.0922 28.1555 19.0922L37.0658 19.0922C38.0345 19.0922 38.4373 20.3318 37.6536 20.9012L30.445 26.1385C30.0945 26.3932 29.9479 26.8446 30.0818 27.2566L32.8352 35.7308C33.1345 36.6521 32.0801 37.4182 31.2963 36.8488L24.0878 31.6115C23.7373 31.3568 23.2627 31.3568 22.9122 31.6115L15.7037 36.8488C14.9199 37.4182 13.8655 36.6521 14.1648 35.7307L16.9182 27.2566C17.0521 26.8446 16.9055 26.3932 16.555 26.1385L9.3464 20.9012C8.56269 20.3318 8.96547 19.0922 9.93419 19.0922L18.8445 19.0922C19.2777 19.0922 19.6616 18.8132 19.7955 18.4012L22.5489 9.92705Z" fill="#0F3057"/>
</svg>
